<svg width="21" height="21" viewBox="0 0 21 21" fill="none" xmlns="http://www.w3.org/2000/svg">
<g id="Untitled design 1" clip-path="url(#clip0_57_4)">
<g id="Clip path group">
<mask id="mask0_57_4" style="mask-type:luminance" maskUnits="userSpaceOnUse" x="10" y="10" width="11" height="11">
<g id="35c8af6561">
<path id="Vector" d="M10.4993 10.4985H20.9979V20.9978H10.4993V10.4985Z" fill="white"/>
</g>
</mask>
<g mask="url(#mask0_57_4)">
<g id="Group">
<path id="Vector_2" d="M10.4993 20.998V10.4995H20.9978V12.4837H13.885L20.9978 19.5964L19.5962 20.998L12.4835 13.8853V20.998H10.4993Z" fill="white"/>
</g>
</g>
</g>
<g id="Clip path group_2">
<mask id="mask1_57_4" style="mask-type:luminance" maskUnits="userSpaceOnUse" x="0" y="0" width="4" height="4">
<g id="6e30685268">
<path id="Vector_3" d="M0.000732422 0.000732422H3.50027V3.50027H0.000732422V0.000732422Z" fill="white"/>
</g>
</mask>
<g mask="url(#mask1_57_4)">
<g id="Group_2">
<g id="Clip path group_3">
<mask id="mask2_57_4" style="mask-type:luminance" maskUnits="userSpaceOnUse" x="0" y="0" width="4" height="4">
<g id="407b222d62">
<path id="Vector_4" d="M1.7505 0.000732422C0.784142 0.000732422 0.000732422 0.784142 0.000732422 1.7505C0.000732422 2.71686 0.784142 3.50027 1.7505 3.50027C2.71686 3.50027 3.50027 2.71686 3.50027 1.7505C3.50027 0.784142 2.71686 0.000732422 1.7505 0.000732422Z" fill="white"/>
</g>
</mask>
<g mask="url(#mask2_57_4)">
<g id="Group_3">
<path id="Vector_5" d="M0.000732422 0.000732422H3.50027V3.50027H0.000732422V0.000732422Z" fill="white"/>
</g>
</g>
</g>
</g>
</g>
</g>
<g id="Clip path group_4">
<mask id="mask3_57_4" style="mask-type:luminance" maskUnits="userSpaceOnUse" x="8" y="0" width="5" height="4">
<g id="688026ca9c">
<path id="Vector_6" d="M8.74951 0.000732422H12.2491V3.50027H8.74951V0.000732422Z" fill="white"/>
</g>
</mask>
<g mask="url(#mask3_57_4)">
<g id="Group_4">
<g id="Clip path group_5">
<mask id="mask4_57_4" style="mask-type:luminance" maskUnits="userSpaceOnUse" x="8" y="0" width="5" height="4">
<g id="7203605c25">
<path id="Vector_7" d="M10.4993 0.000732422C9.53292 0.000732422 8.74951 0.784142 8.74951 1.7505C8.74951 2.71686 9.53292 3.50027 10.4993 3.50027C11.4656 3.50027 12.2491 2.71686 12.2491 1.7505C12.2491 0.784142 11.4656 0.000732422 10.4993 0.000732422Z" fill="white"/>
</g>
</mask>
<g mask="url(#mask4_57_4)">
<g id="Group_5">
<path id="Vector_8" d="M8.74951 0.000732422H12.2491V3.50027H8.74951V0.000732422Z" fill="white"/>
</g>
</g>
</g>
</g>
</g>
</g>
<g id="Clip path group_6">
<mask id="mask5_57_4" style="mask-type:luminance" maskUnits="userSpaceOnUse" x="17" y="0" width="4" height="4">
<g id="3eed754b89">
<path id="Vector_9" d="M17.4987 0.000732422H20.9979V3.50027H17.4987V0.000732422Z" fill="white"/>
</g>
</mask>
<g mask="url(#mask5_57_4)">
<g id="Group_6">
<g id="Clip path group_7">
<mask id="mask6_57_4" style="mask-type:luminance" maskUnits="userSpaceOnUse" x="17" y="0" width="4" height="4">
<g id="b575b47335">
<path id="Vector_10" d="M19.2484 0.000732422C18.2821 0.000732422 17.4987 0.784142 17.4987 1.7505C17.4987 2.71686 18.2821 3.50027 19.2484 3.50027C20.2148 3.50027 20.9982 2.71686 20.9982 1.7505C20.9982 0.784142 20.2148 0.000732422 19.2484 0.000732422Z" fill="white"/>
</g>
</mask>
<g mask="url(#mask6_57_4)">
<g id="Group_7">
<path id="Vector_11" d="M17.4987 0.000732422H20.9982V3.50027H17.4987V0.000732422Z" fill="white"/>
</g>
</g>
</g>
</g>
</g>
</g>
<g id="Clip path group_8">
<mask id="mask7_57_4" style="mask-type:luminance" maskUnits="userSpaceOnUse" x="4" y="0" width="4" height="4">
<g id="21a054f075">
<path id="Vector_12" d="M4.37512 0.000732422H7.87466V3.50027H4.37512V0.000732422Z" fill="white"/>
</g>
</mask>
<g mask="url(#mask7_57_4)">
<g id="Group_8">
<g id="Clip path group_9">
<mask id="mask8_57_4" style="mask-type:luminance" maskUnits="userSpaceOnUse" x="4" y="0" width="4" height="4">
<g id="f2f8dbc6ba">
<path id="Vector_13" d="M6.12489 0.000732422C5.15853 0.000732422 4.37512 0.784142 4.37512 1.7505C4.37512 2.71686 5.15853 3.50027 6.12489 3.50027C7.09125 3.50027 7.87466 2.71686 7.87466 1.7505C7.87466 0.784142 7.09125 0.000732422 6.12489 0.000732422Z" fill="white"/>
</g>
</mask>
<g mask="url(#mask8_57_4)">
<g id="Group_9">
<path id="Vector_14" d="M4.37512 0.000732422H7.87466V3.50027H4.37512V0.000732422Z" fill="white"/>
</g>
</g>
</g>
</g>
</g>
</g>
<g id="Clip path group_10">
<mask id="mask9_57_4" style="mask-type:luminance" maskUnits="userSpaceOnUse" x="13" y="0" width="4" height="4">
<g id="27fdcac9c7">
<path id="Vector_15" d="M13.1226 0.000732422H16.6221V3.50027H13.1226V0.000732422Z" fill="white"/>
</g>
</mask>
<g mask="url(#mask9_57_4)">
<g id="Group_10">
<g id="Clip path group_11">
<mask id="mask10_57_4" style="mask-type:luminance" maskUnits="userSpaceOnUse" x="13" y="0" width="4" height="4">
<g id="611397dfe6">
<path id="Vector_16" d="M14.8723 0.000732422C13.906 0.000732422 13.1226 0.784142 13.1226 1.7505C13.1226 2.71686 13.906 3.50027 14.8723 3.50027C15.8387 3.50027 16.6221 2.71686 16.6221 1.7505C16.6221 0.784142 15.8387 0.000732422 14.8723 0.000732422Z" fill="white"/>
</g>
</mask>
<g mask="url(#mask10_57_4)">
<g id="Group_11">
<path id="Vector_17" d="M13.1226 0.000732422H16.6221V3.50027H13.1226V0.000732422Z" fill="white"/>
</g>
</g>
</g>
</g>
</g>
</g>
<g id="Clip path group_12">
<mask id="mask11_57_4" style="mask-type:luminance" maskUnits="userSpaceOnUse" x="0" y="17" width="4" height="4">
<g id="29ad2375fe">
<path id="Vector_18" d="M0.0020752 17.4982H3.50157V20.9977H0.0020752V17.4982Z" fill="white"/>
</g>
</mask>
<g mask="url(#mask11_57_4)">
<g id="Group_12">
<g id="Clip path group_13">
<mask id="mask12_57_4" style="mask-type:luminance" maskUnits="userSpaceOnUse" x="0" y="17" width="4" height="4">
<g id="36a6aa012a">
<path id="Vector_19" d="M0.0020752 19.2479C0.0020752 20.2143 0.785439 20.9977 1.75185 20.9977C2.71821 20.9977 3.50157 20.2143 3.50157 19.2479C3.50157 18.2816 2.71821 17.4982 1.75185 17.4982C0.785439 17.4982 0.0020752 18.2816 0.0020752 19.2479Z" fill="white"/>
</g>
</mask>
<g mask="url(#mask12_57_4)">
<g id="Group_13">
<path id="Vector_20" d="M0.0020752 20.9977V17.4982H3.50157V20.9977H0.0020752Z" fill="white"/>
</g>
</g>
</g>
</g>
</g>
</g>
<g id="Clip path group_14">
<mask id="mask13_57_4" style="mask-type:luminance" maskUnits="userSpaceOnUse" x="0" y="8" width="4" height="5">
<g id="18f651be09">
<path id="Vector_21" d="M0.0020752 8.74939H3.50157V12.2489H0.0020752V8.74939Z" fill="white"/>
</g>
</mask>
<g mask="url(#mask13_57_4)">
<g id="Group_14">
<g id="Clip path group_15">
<mask id="mask14_57_4" style="mask-type:luminance" maskUnits="userSpaceOnUse" x="0" y="8" width="4" height="5">
<g id="4842a5d174">
<path id="Vector_22" d="M0.0020752 10.4992C0.0020752 11.4655 0.785439 12.2489 1.75185 12.2489C2.71821 12.2489 3.50157 11.4655 3.50157 10.4992C3.50157 9.5328 2.71821 8.74939 1.75185 8.74939C0.785439 8.74939 0.0020752 9.5328 0.0020752 10.4992Z" fill="white"/>
</g>
</mask>
<g mask="url(#mask14_57_4)">
<g id="Group_15">
<path id="Vector_23" d="M0.0020752 12.2489V8.74939H3.50157V12.2489H0.0020752Z" fill="white"/>
</g>
</g>
</g>
</g>
</g>
</g>
<g id="Clip path group_16">
<mask id="mask15_57_4" style="mask-type:luminance" maskUnits="userSpaceOnUse" x="0" y="13" width="4" height="4">
<g id="e9887f15b6">
<path id="Vector_24" d="M0.0020752 13.1238H3.50157V16.6233H0.0020752V13.1238Z" fill="white"/>
</g>
</mask>
<g mask="url(#mask15_57_4)">
<g id="Group_16">
<g id="Clip path group_17">
<mask id="mask16_57_4" style="mask-type:luminance" maskUnits="userSpaceOnUse" x="0" y="13" width="4" height="4">
<g id="f774270bce">
<path id="Vector_25" d="M0.0020752 14.8735C0.0020752 15.8399 0.785439 16.6233 1.75185 16.6233C2.71821 16.6233 3.50157 15.8399 3.50157 14.8735C3.50157 13.9072 2.71821 13.1238 1.75185 13.1238C0.785439 13.1238 0.0020752 13.9072 0.0020752 14.8735Z" fill="white"/>
</g>
</mask>
<g mask="url(#mask16_57_4)">
<g id="Group_17">
<path id="Vector_26" d="M0.0020752 16.6233V13.1238H3.50157V16.6233H0.0020752Z" fill="white"/>
</g>
</g>
</g>
</g>
</g>
</g>
<g id="Clip path group_18">
<mask id="mask17_57_4" style="mask-type:luminance" maskUnits="userSpaceOnUse" x="0" y="4" width="4" height="4">
<g id="4846382efb">
<path id="Vector_27" d="M0.0020752 4.37634H3.50157V7.87588H0.0020752V4.37634Z" fill="white"/>
</g>
</mask>
<g mask="url(#mask17_57_4)">
<g id="Group_18">
<g id="Clip path group_19">
<mask id="mask18_57_4" style="mask-type:luminance" maskUnits="userSpaceOnUse" x="0" y="4" width="4" height="4">
<g id="815eb0af39">
<path id="Vector_28" d="M0.0020752 6.12611C0.0020752 7.09247 0.785439 7.87588 1.75185 7.87588C2.71821 7.87588 3.50157 7.09247 3.50157 6.12611C3.50157 5.15975 2.71821 4.37634 1.75185 4.37634C0.785439 4.37634 0.0020752 5.15975 0.0020752 6.12611Z" fill="white"/>
</g>
</mask>
<g mask="url(#mask18_57_4)">
<g id="Group_19">
<path id="Vector_29" d="M0.0020752 7.87588V4.37634H3.50157V7.87588H0.0020752Z" fill="white"/>
</g>
</g>
</g>
</g>
</g>
</g>
<g id="Clip path group_20">
<mask id="mask19_57_4" style="mask-type:luminance" maskUnits="userSpaceOnUse" x="4" y="17" width="4" height="4">
<g id="6705c659a8">
<path id="Vector_30" d="M4.37512 17.4983H7.87466V20.9978H4.37512V17.4983Z" fill="white"/>
</g>
</mask>
<g mask="url(#mask19_57_4)">
<g id="Group_20">
<g id="Clip path group_21">
<mask id="mask20_57_4" style="mask-type:luminance" maskUnits="userSpaceOnUse" x="4" y="17" width="4" height="4">
<g id="f5e2ada186">
<path id="Vector_31" d="M6.12489 17.4983C5.15853 17.4983 4.37512 18.2817 4.37512 19.2481C4.37512 20.2144 5.15853 20.9978 6.12489 20.9978C7.09125 20.9978 7.87466 20.2144 7.87466 19.2481C7.87466 18.2817 7.09125 17.4983 6.12489 17.4983Z" fill="white"/>
</g>
</mask>
<g mask="url(#mask20_57_4)">
<g id="Group_21">
<path id="Vector_32" d="M4.37512 17.4983H7.87466V20.9978H4.37512V17.4983Z" fill="white"/>
</g>
</g>
</g>
</g>
</g>
</g>
</g>
<defs>
<clipPath id="clip0_57_4">
<rect width="21" height="21" fill="white"/>
</clipPath>
</defs>
</svg>
